<svg width="1440" height="900" xmlns="http://www.w3.org/2000/svg"><path d="M747,381L742,155L501,360Z" fill="rgb(161,217,189)" stroke="rgb(161,217,189)" stroke-width="1.51"></path><path d="M742,155L381,90L501,360Z" fill="rgb(188,229,191)" stroke="rgb(188,229,191)" stroke-width="1.51"></path><path d="M742,155L671,-48L381,90Z" fill="rgb(195,231,207)" stroke="rgb(195,231,207)" stroke-width="1.51"></path><path d="M671,-48L491,-100L381,90Z" fill="rgb(210,238,211)" stroke="rgb(210,238,211)" stroke-width="1.51"></path><path d="M747,381L1030,379L742,155Z" fill="rgb(142,206,196)" stroke="rgb(142,206,196)" stroke-width="1.51"></path><path d="M742,155L961,-128L671,-48Z" fill="rgb(182,223,221)" stroke="rgb(182,223,221)" stroke-width="1.51"></path><path d="M1030,379L1063,176L742,155Z" fill="rgb(145,201,201)" stroke="rgb(145,201,201)" stroke-width="1.51"></path><path d="M501,360L748,720L747,381Z" fill="rgb(125,202,197)" stroke="rgb(125,202,197)" stroke-width="1.51"></path><path d="M747,381L748,720L1030,379Z" fill="rgb(102,190,204)" stroke="rgb(102,190,204)" stroke-width="1.51"></path><path d="M501,360L473,774L748,720Z" fill="rgb(120,188,193)" stroke="rgb(120,188,193)" stroke-width="1.51"></path><path d="M381,90L165,425L501,360Z" fill="rgb(194,231,192)" stroke="rgb(194,231,192)" stroke-width="1.51"></path><path d="M83,183L165,425L381,90Z" fill="rgb(212,238,205)" stroke="rgb(212,238,205)" stroke-width="1.51"></path><path d="M671,-48L781,-424L491,-100Z" fill="rgb(196,232,215)" stroke="rgb(196,232,215)" stroke-width="1.51"></path><path d="M1063,176L961,-128L742,155Z" fill="rgb(163,210,218)" stroke="rgb(163,210,218)" stroke-width="1.51"></path><path d="M165,425L473,774L501,360Z" fill="rgb(154,210,200)" stroke="rgb(154,210,200)" stroke-width="1.51"></path><path d="M93,-202L83,183L381,90Z" fill="rgb(233,247,227)" stroke="rgb(233,247,227)" stroke-width="1.51"></path><path d="M748,720L971,783L1030,379Z" fill="rgb(67,165,204)" stroke="rgb(67,165,204)" stroke-width="1.51"></path><path d="M1030,379L1281,457L1063,176Z" fill="rgb(117,175,185)" stroke="rgb(117,175,185)" stroke-width="1.51"></path><path d="M807,1071L971,783L748,720Z" fill="rgb(62,131,175)" stroke="rgb(62,131,175)" stroke-width="1.51"></path><path d="M1291,716L1281,457L1030,379Z" fill="rgb(69,152,192)" stroke="rgb(69,152,192)" stroke-width="1.51"></path><path d="M1063,176L1236,-161L961,-128Z" fill="rgb(158,194,215)" stroke="rgb(158,194,215)" stroke-width="1.51"></path><path d="M1281,457L1314,139L1063,176Z" fill="rgb(126,169,185)" stroke="rgb(126,169,185)" stroke-width="1.51"></path><path d="M961,-128L781,-424L671,-48Z" fill="rgb(180,222,221)" stroke="rgb(180,222,221)" stroke-width="1.51"></path><path d="M491,-100L93,-202L381,90Z" fill="rgb(228,245,221)" stroke="rgb(228,245,221)" stroke-width="1.51"></path><path d="M1064,-465L781,-424L961,-128Z" fill="rgb(169,211,224)" stroke="rgb(169,211,224)" stroke-width="1.51"></path><path d="M171,-410L93,-202L491,-100Z" fill="rgb(232,246,225)" stroke="rgb(232,246,225)" stroke-width="1.51"></path><path d="M473,774L448,995L748,720Z" fill="rgb(106,151,170)" stroke="rgb(106,151,170)" stroke-width="1.51"></path><path d="M165,425L140,805L473,774Z" fill="rgb(144,189,201)" stroke="rgb(144,189,201)" stroke-width="1.51"></path><path d="M-93,423L140,805L165,425Z" fill="rgb(169,215,221)" stroke="rgb(169,215,221)" stroke-width="1.51"></path><path d="M83,183L-93,423L165,425Z" fill="rgb(203,235,208)" stroke="rgb(203,235,208)" stroke-width="1.51"></path><path d="M-118,184L-93,423L83,183Z" fill="rgb(220,241,216)" stroke="rgb(220,241,216)" stroke-width="1.51"></path><path d="M1314,139L1236,-161L1063,176Z" fill="rgb(148,179,205)" stroke="rgb(148,179,205)" stroke-width="1.51"></path><path d="M140,805L448,995L473,774Z" fill="rgb(125,153,173)" stroke="rgb(125,153,173)" stroke-width="1.51"></path><path d="M-53,-96L-118,184L83,183Z" fill="rgb(238,249,231)" stroke="rgb(238,249,231)" stroke-width="1.51"></path><path d="M93,-202L-53,-96L83,183Z" fill="rgb(245,251,237)" stroke="rgb(245,251,237)" stroke-width="1.51"></path><path d="M781,-424L432,-483L491,-100Z" fill="rgb(205,235,211)" stroke="rgb(205,235,211)" stroke-width="1.51"></path><path d="M-180,-485L-341,-175L-53,-96Z" fill="rgb(247,252,240)" stroke="rgb(247,252,240)" stroke-width="1.51"></path><path d="M1613,405L1613,150L1314,139Z" fill="rgb(120,144,164)" stroke="rgb(120,144,164)" stroke-width="1.51"></path><path d="M971,783L1291,716L1030,379Z" fill="rgb(51,146,194)" stroke="rgb(51,146,194)" stroke-width="1.51"></path><path d="M1235,1081L1291,716L971,783Z" fill="rgb(22,100,162)" stroke="rgb(22,100,162)" stroke-width="1.51"></path><path d="M448,995L807,1071L748,720Z" fill="rgb(86,133,161)" stroke="rgb(86,133,161)" stroke-width="1.51"></path><path d="M432,-483L171,-410L491,-100Z" fill="rgb(225,244,218)" stroke="rgb(225,244,218)" stroke-width="1.51"></path><path d="M807,1071L957,1057L971,783Z" fill="rgb(49,118,169)" stroke="rgb(49,118,169)" stroke-width="1.51"></path><path d="M781,-424L1064,-465L432,-483Z" fill="rgb(184,225,219)" stroke="rgb(184,225,219)" stroke-width="1.51"></path><path d="M1230,-375L1064,-465L961,-128Z" fill="rgb(159,194,215)" stroke="rgb(159,194,215)" stroke-width="1.51"></path><path d="M1546,-184L1230,-375L1236,-161Z" fill="rgb(146,164,197)" stroke="rgb(146,164,197)" stroke-width="1.51"></path><path d="M1236,-161L1230,-375L961,-128Z" fill="rgb(156,187,212)" stroke="rgb(156,187,212)" stroke-width="1.51"></path><path d="M448,995L646,1262L807,1071Z" fill="rgb(91,134,160)" stroke="rgb(91,134,160)" stroke-width="1.51"></path><path d="M140,805L73,987L448,995Z" fill="rgb(128,147,172)" stroke="rgb(128,147,172)" stroke-width="1.51"></path><path d="M-191,675L73,987L140,805Z" fill="rgb(147,167,199)" stroke="rgb(147,167,199)" stroke-width="1.51"></path><path d="M-93,423L-191,675L140,805Z" fill="rgb(164,202,219)" stroke="rgb(164,202,219)" stroke-width="1.51"></path><path d="M-347,459L-191,675L-93,423Z" fill="rgb(178,220,223)" stroke="rgb(178,220,223)" stroke-width="1.51"></path><path d="M1314,139L1546,-184L1236,-161Z" fill="rgb(145,161,194)" stroke="rgb(145,161,194)" stroke-width="1.51"></path><path d="M1613,405L1314,139L1281,457Z" fill="rgb(106,143,161)" stroke="rgb(106,143,161)" stroke-width="1.51"></path><path d="M1539,734L1613,405L1281,457Z" fill="rgb(59,122,168)" stroke="rgb(59,122,168)" stroke-width="1.51"></path><path d="M1539,734L1281,457L1291,716Z" fill="rgb(38,115,171)" stroke="rgb(38,115,171)" stroke-width="1.51"></path><path d="M473,1385L646,1262L448,995Z" fill="rgb(106,138,157)" stroke="rgb(106,138,157)" stroke-width="1.51"></path><path d="M807,1071L973,1321L957,1057Z" fill="rgb(49,118,169)" stroke="rgb(49,118,169)" stroke-width="1.51"></path><path d="M-460,198L-347,459L-118,184Z" fill="rgb(217,240,214)" stroke="rgb(217,240,214)" stroke-width="1.51"></path><path d="M-118,184L-347,459L-93,423Z" fill="rgb(205,235,211)" stroke="rgb(205,235,211)" stroke-width="1.51"></path><path d="M973,1321L1235,1081L957,1057Z" fill="rgb(33,103,161)" stroke="rgb(33,103,161)" stroke-width="1.51"></path><path d="M957,1057L1235,1081L971,783Z" fill="rgb(33,103,161)" stroke="rgb(33,103,161)" stroke-width="1.51"></path><path d="M1235,1081L1539,734L1291,716Z" fill="rgb(10,83,149)" stroke="rgb(10,83,149)" stroke-width="1.51"></path><path d="M1613,150L1546,-184L1314,139Z" fill="rgb(138,151,181)" stroke="rgb(138,151,181)" stroke-width="1.51"></path><path d="M237,1371L473,1385L448,995Z" fill="rgb(119,143,163)" stroke="rgb(119,143,163)" stroke-width="1.51"></path><path d="M-191,675L-110,1036L73,987Z" fill="rgb(141,152,184)" stroke="rgb(141,152,184)" stroke-width="1.51"></path><path d="M-420,1018L-110,1036L-191,675Z" fill="rgb(141,152,184)" stroke="rgb(141,152,184)" stroke-width="1.51"></path><path d="M-53,-96L-341,-175L-118,184Z" fill="rgb(247,252,240)" stroke="rgb(247,252,240)" stroke-width="1.51"></path><path d="M-180,-485L-53,-96L93,-202Z" fill="rgb(247,252,240)" stroke="rgb(247,252,240)" stroke-width="1.51"></path><path d="M-341,-175L-460,198L-118,184Z" fill="rgb(240,249,233)" stroke="rgb(240,249,233)" stroke-width="1.51"></path><path d="M-347,459L-416,717L-191,675Z" fill="rgb(166,205,221)" stroke="rgb(166,205,221)" stroke-width="1.51"></path><path d="M646,1262L973,1321L807,1071Z" fill="rgb(66,125,166)" stroke="rgb(66,125,166)" stroke-width="1.51"></path><path d="M432,-483L-180,-485L171,-410Z" fill="rgb(238,249,232)" stroke="rgb(238,249,232)" stroke-width="1.51"></path><path d="M171,-410L-180,-485L93,-202Z" fill="rgb(245,252,238)" stroke="rgb(245,252,238)" stroke-width="1.51"></path><path d="M237,1371L448,995L73,987Z" fill="rgb(127,147,170)" stroke="rgb(127,147,170)" stroke-width="1.51"></path><path d="M646,1262L473,1385L973,1321Z" fill="rgb(81,131,162)" stroke="rgb(81,131,162)" stroke-width="1.51"></path><path d="M-460,198L-416,717L-347,459Z" fill="rgb(186,227,218)" stroke="rgb(186,227,218)" stroke-width="1.51"></path><path d="M1613,150L1832,-146L1546,-184Z" fill="rgb(141,152,184)" stroke="rgb(141,152,184)" stroke-width="1.51"></path><path d="M1613,405L1784,187L1613,150Z" fill="rgb(118,143,163)" stroke="rgb(118,143,163)" stroke-width="1.51"></path><path d="M1767,527L1784,187L1613,405Z" fill="rgb(96,136,158)" stroke="rgb(96,136,158)" stroke-width="1.51"></path><path d="M1832,-146L1604,-365L1546,-184Z" fill="rgb(141,152,184)" stroke="rgb(141,152,184)" stroke-width="1.51"></path><path d="M1546,-184L1604,-365L1230,-375Z" fill="rgb(141,152,184)" stroke="rgb(141,152,184)" stroke-width="1.51"></path><path d="M1230,-375L1604,-365L1064,-465Z" fill="rgb(148,170,201)" stroke="rgb(148,170,201)" stroke-width="1.51"></path><path d="M1539,734L1767,527L1613,405Z" fill="rgb(53,120,169)" stroke="rgb(53,120,169)" stroke-width="1.51"></path><path d="M1800,706L1767,527L1539,734Z" fill="rgb(34,104,161)" stroke="rgb(34,104,161)" stroke-width="1.51"></path><path d="M-166,1339L237,1371L73,987Z" fill="rgb(138,151,181)" stroke="rgb(138,151,181)" stroke-width="1.51"></path><path d="M1767,527L1800,706L1784,187Z" fill="rgb(73,128,164)" stroke="rgb(73,128,164)" stroke-width="1.51"></path><path d="M1647,1079L1800,706L1539,734Z" fill="rgb(9,74,140)" stroke="rgb(9,74,140)" stroke-width="1.51"></path><path d="M1647,1079L1539,734L1235,1081Z" fill="rgb(8,64,129)" stroke="rgb(8,64,129)" stroke-width="1.51"></path><path d="M973,1321L1336,1309L1235,1081Z" fill="rgb(20,91,154)" stroke="rgb(20,91,154)" stroke-width="1.51"></path><path d="M1567,1325L1336,1309L973,1321Z" fill="rgb(10,80,146)" stroke="rgb(10,80,146)" stroke-width="1.51"></path><path d="M1784,187L1832,-146L1613,150Z" fill="rgb(135,150,179)" stroke="rgb(135,150,179)" stroke-width="1.51"></path><path d="M1941,-466L1832,-146L1784,187Z" fill="rgb(141,152,184)" stroke="rgb(141,152,184)" stroke-width="1.51"></path><path d="M-180,-485L-484,-371L-341,-175Z" fill="rgb(247,252,240)" stroke="rgb(247,252,240)" stroke-width="1.51"></path><path d="M-341,-175L-484,-371L-460,198Z" fill="rgb(247,252,240)" stroke="rgb(247,252,240)" stroke-width="1.51"></path><path d="M-416,717L-420,1018L-191,675Z" fill="rgb(149,171,203)" stroke="rgb(149,171,203)" stroke-width="1.51"></path><path d="M-110,1036L-166,1339L73,987Z" fill="rgb(141,152,184)" stroke="rgb(141,152,184)" stroke-width="1.51"></path><path d="M-460,198L-420,1018L-416,717Z" fill="rgb(162,200,218)" stroke="rgb(162,200,218)" stroke-width="1.51"></path><path d="M1336,1309L1647,1079L1235,1081Z" fill="rgb(9,67,133)" stroke="rgb(9,67,133)" stroke-width="1.51"></path><path d="M-420,1018L-166,1339L-110,1036Z" fill="rgb(141,152,184)" stroke="rgb(141,152,184)" stroke-width="1.51"></path><path d="M1336,1309L1567,1325L1647,1079Z" fill="rgb(8,64,129)" stroke="rgb(8,64,129)" stroke-width="1.51"></path><path d="M1647,1079L1858,1067L1800,706Z" fill="rgb(8,64,129)" stroke="rgb(8,64,129)" stroke-width="1.51"></path><path d="M473,1385L1567,1325L973,1321Z" fill="rgb(39,108,164)" stroke="rgb(39,108,164)" stroke-width="1.51"></path><path d="M1785,1240L1858,1067L1647,1079Z" fill="rgb(8,64,129)" stroke="rgb(8,64,129)" stroke-width="1.51"></path><path d="M1800,706L1941,-466L1784,187Z" fill="rgb(128,147,172)" stroke="rgb(128,147,172)" stroke-width="1.51"></path><path d="M-420,1018L-333,1379L-166,1339Z" fill="rgb(141,152,184)" stroke="rgb(141,152,184)" stroke-width="1.51"></path><path d="M-166,1339L-333,1379L237,1371Z" fill="rgb(141,152,184)" stroke="rgb(141,152,184)" stroke-width="1.51"></path><path d="M237,1371L-333,1379L473,1385Z" fill="rgb(133,149,177)" stroke="rgb(133,149,177)" stroke-width="1.51"></path><path d="M1832,-146L1941,-466L1604,-365Z" fill="rgb(141,152,184)" stroke="rgb(141,152,184)" stroke-width="1.51"></path><path d="M1604,-365L1941,-466L1064,-465Z" fill="rgb(141,152,184)" stroke="rgb(141,152,184)" stroke-width="1.51"></path><path d="M1064,-465L1941,-466L432,-483Z" fill="rgb(156,187,212)" stroke="rgb(156,187,212)" stroke-width="1.51"></path><path d="M1858,1067L1941,-466L1800,706Z" fill="rgb(81,131,162)" stroke="rgb(81,131,162)" stroke-width="1.51"></path><path d="M1567,1325L1785,1240L1647,1079Z" fill="rgb(8,64,129)" stroke="rgb(8,64,129)" stroke-width="1.51"></path></svg>